<svg xmlns="http://www.w3.org/2000/svg" viewBox="0 0 399.15 226.56"><defs><style>.cls-1,.cls-2{fill:#111;}.cls-2{font-size:39.5px;font-family:QanelasSoftDEMO-ExtraBold, Qanelas Soft DEMO;font-weight:800;}.cls-3{letter-spacing:-0.01em;}.cls-4{letter-spacing:0em;}.cls-5{letter-spacing:-0.03em;}.cls-6{letter-spacing:-0.03em;}.cls-7{letter-spacing:-0.04em;}.cls-8{letter-spacing:0em;}.cls-10,.cls-9{font-family:QanelasSoftDEMO-UltraLight, Qanelas Soft DEMO;font-weight:100;}.cls-10{letter-spacing:-0.02em;}</style></defs><title>Ativo 120</title><g id="Camada_2" data-name="Camada 2"><g id="Camada_1-2" data-name="Camada 1"><path class="cls-1" d="M261.1,114.62c.73,8.17-2.77,13.28-8.56,17-8,5.26-17.15,6.62-26.51,6.37-8.83-.24-17.36-2.06-24.91-6.95-1.79-1.16-2.72,0-4,.61-15.33,7.94-31.07,8.69-46.92,2-7-3-12-8-12.5-16.29,0-.7-.32-1.51.65-2.18,6.39,8,14.65,8.17,23.6,5.4,6.1-1.87,11.84-4.59,17.7-7,6.21-2.6,12.33-3,18.34.35,1.37.76,2.28.31,3.44-.27a19.85,19.85,0,0,1,17-.47c6.35,2.57,12.5,5.64,19.09,7.59C246.24,123.37,254.35,123.21,261.1,114.62Z"/><path class="cls-1" d="M233.21,44.5c-3.4-6.54-4.44-12.38-1.08-18.43a35.87,35.87,0,0,1,3.31-5c4.77-6,7.23-12.52,4.3-20.48,6.79,4.51,9.32,13.63,6,20.47a48.53,48.53,0,0,1-6,8.61C236.48,33.83,233.66,38.2,233.21,44.5Z"/><path class="cls-1" d="M240,45.69c-2.6-4.79-.46-7.89,1.91-10.88,3.32-4.17,7.14-8,8.24-14.48,2.17,6.5.55,11.27-3.27,15.5C244.33,38.67,241.45,41.24,240,45.69Z"/><path class="cls-1" d="M284.35,62.43c-1.89-5.51-6.93-8.48-14.8-8.52-10.24-.06-20.48,0-30.72,0-10.62,0-21.23.07-31.85,0-2.27,0-3,.57-3,2.89a50.34,50.34,0,0,0,1.62,14.82c6,20.67,27.81,31.86,45.83,22.59,9.41-4.85,17.81-11.59,27.34-16.48C284.65,74.63,286.26,68,284.35,62.43Zm-5.87,8c-1.92,2.65-4.67,4.38-9.45,5.78,1.89-5.16,3.25-9.93,3.34-15,0-1.07.32-1.46,1.57-1.3A6.58,6.58,0,0,1,278.48,70.46Z"/><path class="cls-1" d="M159.53,0c-3.12,8.92-.42,15.59,4.57,21.73,5.51,6.79,6.53,14.05,1.71,22.55-.49-8.1-5.56-13.1-9.6-18.67C149.66,16.58,150.48,8.67,159.53,0Z"/><path class="cls-1" d="M148.88,20.36c1.21,6.6,5.21,10.5,8.58,14.8,2.3,2.91,4.15,6,1.57,10.39-1.42-4.55-4.72-7.22-7.38-10.4C148.24,31.08,146.84,26.52,148.88,20.36Z"/><path class="cls-1" d="M195.13,55.93c-.2-2.4-1.64-2-3.1-2H160.57c-6.87,0-13.74-.06-20.6,0-5.11.06-10.24-.44-15.32.46-9.89,1.76-13.9,12.64-7.54,20.39a22.29,22.29,0,0,0,9.76,6.68,39.6,39.6,0,0,1,13,7.81,30.27,30.27,0,0,0,27.47,7.39C185.9,92.78,196.65,74.28,195.13,55.93ZM120.87,70.84a6.22,6.22,0,0,1,.58-9c1.35-1.17,3.08-2.28,4.7-1.73,1.34.46.53,2.43.68,3.71a49.29,49.29,0,0,0,3.26,12.54A17.09,17.09,0,0,1,120.87,70.84Z"/><text class="cls-2" transform="translate(0 217.99)"><tspan class="cls-3">O</tspan><tspan class="cls-4" x="30.73" y="0">J</tspan><tspan class="cls-5" x="52.06" y="0">OA</tspan><tspan class="cls-6" x="106.49" y="0">O</tspan><tspan x="136.44" y="0">VI</tspan><tspan class="cls-7" x="172.78" y="0">T</tspan><tspan class="cls-8" x="190.95" y="0">OR</tspan><tspan class="cls-9" x="246.96" y="0">AR</tspan><tspan class="cls-10" x="296.41" y="0">A</tspan><tspan class="cls-9" x="320.47" y="0">UJO</tspan></text></g></g></svg>